<svg width="18" height="18" viewBox="0 0 18 18" fill="none" xmlns="http://www.w3.org/2000/svg">
<path d="M17.0682 1.76057L10.1932 16.7606C10.1357 16.8862 10.0381 16.9893 9.91582 17.0536C9.7935 17.1179 9.65332 17.1399 9.5172 17.116C9.38108 17.0922 9.25669 17.024 9.16348 16.9219C9.07028 16.8199 9.01352 16.6899 9.00208 16.5521L8.42083 9.5792L1.44789 8.99795C1.31017 8.98651 1.18013 8.92975 1.0781 8.83655C0.976073 8.74334 0.90781 8.61895 0.88399 8.48283C0.860169 8.34671 0.882135 8.20653 0.946451 8.08421C1.01077 7.9619 1.11381 7.86435 1.23945 7.80683L16.2395 0.931825C16.3554 0.878682 16.4849 0.862292 16.6104 0.884858C16.736 0.907423 16.8516 0.967862 16.9418 1.05806C17.032 1.14826 17.0924 1.26389 17.115 1.38944C17.1375 1.51498 17.1212 1.64443 17.068 1.76039L17.0682 1.76057Z" fill="#383838"/>
</svg>
